<svg xmlns="http://www.w3.org/2000/svg" viewBox="0 0 256 256">
  <defs>
    <linearGradient id="shell" x1="24" y1="24" x2="232" y2="232" gradientUnits="userSpaceOnUse">
      <stop offset="0" stop-color="#8cf0d8" />
      <stop offset="1" stop-color="#8ea6ff" />
    </linearGradient>
    <linearGradient id="halo" x1="48" y1="40" x2="208" y2="216" gradientUnits="userSpaceOnUse">
      <stop offset="0" stop-color="#fff4bf" stop-opacity="0.95" />
      <stop offset="1" stop-color="#d7fdf4" stop-opacity="0.2" />
    </linearGradient>
  </defs>
  <rect x="20" y="20" width="216" height="216" rx="56" fill="#08121f" />
  <rect x="28" y="28" width="200" height="200" rx="48" fill="url(#shell)" />
  <circle cx="128" cy="128" r="72" fill="#0b1830" />
  <circle cx="128" cy="120" r="58" fill="url(#halo)" />
  <path d="M88 84l14 34-22 30c-4 5 0 12 7 12h82c7 0 11-7 7-12l-22-30 14-34c2-6-4-11-10-8l-30 16-30-16c-6-3-12 2-10 8z" fill="#0f223c" />
  <circle cx="108" cy="122" r="9" fill="#8cf0d8" />
  <circle cx="148" cy="122" r="9" fill="#8cf0d8" />
  <path d="M104 148c8 10 16 14 24 14s16-4 24-14" fill="none" stroke="#fff4bf" stroke-linecap="round" stroke-width="8" />
  <path d="M74 64l20 34" fill="none" stroke="#0f223c" stroke-linecap="round" stroke-width="18" />
  <path d="M182 64l-20 34" fill="none" stroke="#0f223c" stroke-linecap="round" stroke-width="18" />
</svg>
